v -100.0 0.0 -100.0
v -100.0 0.0 100.0
v 100.0 0.0 -100.0
v 100.0 0.0 100.0
v -100.0 0.0 -50.0
v 50.0 0.0 100.0
v -100.0 200.0 -50.0
v 50.0 200.0 100.0
v 50.0 0.0 -50.0
v 50.0 200.0 -50.0
v 100.0 200.0 100.0
v 100.0 200.0 -50.0
v -100.0 200.0 -100.0
v 50.0 200.0 -100.0
v 100.0 200.0 -100.0
v 50.0 0.0 -100.0
v 100.0 0.0 -50.0
vt 0.0 0.44444445
vn 0.0 1.0 0.0
vt 0.75 0.44444445
vn 0.0 1.0 0.0
vt 0.75 0.111111104
vn 0.0 1.0 0.0
vt 0.0 0.111111104
vn 0.0 1.0 0.0
f 9/1/1 5/2/2 2/3/3 6/4/4
vt 0.75 0.8888889
vn 0.0 0.0 1.0
vt 0.015625 0.8888889
vn 0.0 0.0 1.0
vt 0.015625 0.44444445
vn 0.0 0.0 1.0
vt 0.75 0.44444445
vn 0.0 0.0 1.0
f 10/5/5 7/6/6 5/7/7 9/8/8
vt 0.75 0.44444445
vn 0.0 0.0 -1.0
vt 0.015625 0.44444445
vn 0.0 0.0 -1.0
vt 0.015625 0.8888889
vn 0.0 0.0 -1.0
vt 0.75 0.8888889
vn 0.0 0.0 -1.0
f 16/9/9 1/10/10 13/11/11 14/12/12
vt 0.75 0.8888889
vn 0.0 0.0 -1.0
vt 0.984375 0.8888889
vn 0.0 0.0 -1.0
vt 0.984375 0.44444445
vn 0.0 0.0 -1.0
vt 0.75 0.44444445
vn 0.0 0.0 -1.0
f 14/13/13 15/14/14 3/15/15 16/16/16
vt 0.015625 0.8888889
vn -1.0 0.0 0.0
vt 0.015625 0.44444445
vn -1.0 0.0 0.0
vt 0.75 0.44444445
vn -1.0 0.0 0.0
vt 0.75 0.8888889
vn -1.0 0.0 0.0
f 10/17/17 9/18/18 6/19/19 8/20/20
vt 0.03125 1.0
vn 0.0 1.0 0.0
vt 0.75 1.0
vn 0.0 1.0 0.0
vt 0.75 0.8888889
vn 0.0 1.0 0.0
vt 0.03125 0.8888889
vn 0.0 1.0 0.0
f 10/21/21 8/22/22 11/23/23 12/24/24
vt 0.75 0.8888889
vn 0.0 1.0 0.0
vt 0.015625 0.8888889
vn 0.0 1.0 0.0
vt 0.015625 1.0
vn 0.0 1.0 0.0
vt 0.75 1.0
vn 0.0 1.0 0.0
f 14/25/25 13/26/26 7/27/27 10/28/28
vt 0.765625 0.44444445
vn 1.0 0.0 0.0
vt 0.984375 0.44444445
vn 1.0 0.0 0.0
vt 0.984375 0.8888889
vn 1.0 0.0 0.0
vt 0.765625 0.8888889
vn 1.0 0.0 0.0
f 17/29/29 3/30/30 15/31/31 12/32/32
vt 0.015625 0.8888889
vn 1.0 0.0 0.0
vt 0.75 0.8888889
vn 1.0 0.0 0.0
vt 0.75 0.44444445
vn 1.0 0.0 0.0
vt 0.015625 0.44444445
vn 1.0 0.0 0.0
f 12/33/33 11/34/34 4/35/35 17/36/36
vt 1.0 0.88888884
vn 0.0 1.0 0.0
vt 0.765625 0.8888889
vn 0.0 1.0 0.0
vt 0.765625 1.0
vn 0.0 1.0 0.0
vt 1.0 0.9999999
vn 0.0 1.0 0.0
f 15/37/37 14/38/38 10/39/39 12/40/40
