v -100.0 0.0 -99.257484
v 100.0 0.0 -99.257484
v -100.0 200.0 -50.742527
v 100.0 200.0 -50.742527
v -100.0 200.0 -99.257484
v -100.0 0.0 -50.742527
v 100.0 0.0 -50.742527
v 100.0 200.0 -99.257484
vt 1.0 0.0
vn 0.0 0.0 1.0
vt 1.0 0.8
vn 0.0 0.0 1.0
vt 0.0 0.8
vn 0.0 0.0 1.0
vt 0.0 0.0
vn 0.0 0.0 1.0
f 7/1/1 4/2/2 3/3/3 6/4/4
vt 1.0 1.0
vn 0.0 1.0 0.0
vt 1.0 0.8
vn 0.0 1.0 0.0
vt 0.0 0.8
vn 0.0 1.0 0.0
vt 0.0 1.0
vn 0.0 1.0 0.0
f 4/5/5 8/6/6 5/7/7 3/8/8
vt 1.0 0.8
vn 0.0 0.0 -1.0
vt 1.0 0.0
vn 0.0 0.0 -1.0
vt 0.0 0.0
vn 0.0 0.0 -1.0
vt 0.0 0.8
vn 0.0 0.0 -1.0
f 8/9/9 2/10/10 1/11/11 5/12/12
