v -4.100625 -45.067245 -4.100625
v -4.100625 -45.067245 4.100625
v -18.042747 50.067245 -18.042747
v -18.042747 50.067245 18.042747
v 4.100625 -45.067245 -4.100625
v 4.100625 -45.067245 4.100625
v 18.042747 50.067245 -18.042747
v 18.042747 50.067245 18.042747
v -16.915077 33.66475 16.915077
v -16.915077 33.66475 -16.915077
v 16.915077 33.66475 -16.915077
v 16.915077 33.66475 16.915077
v -10.507851 27.103748 -10.507851
v -10.507851 27.103748 10.507851
v 10.507851 27.103748 10.507851
v 10.507851 27.103748 -10.507851
vt 0.49460357 0.51053107
vn -0.9126433 -0.40875676 0.0
vt 0.50245976 0.62480396
vn -0.9976451 -0.068588026 0.0
vt 0.25105804 0.62480396
vn -0.9976451 -0.068588026 0.0
vt 0.25891405 0.51053107
vn -0.9126433 -0.40875676 0.0
f 9/1/1 4/2/2 3/3/3 10/4/4
vt 0.6207604 0.5079751
vn -0.9085302 -0.41781917 0.0
vt 0.7165039 0.1307379
vn -0.99608237 -0.08843061 0.0
vt 0.79892063 0.1307379
vn -0.99608237 -0.08843061 0.0
vt 0.85288346 0.5079751
vn -0.9085302 -0.41781917 0.0
f 13/5/5 1/6/6 2/7/7 14/8/8
vt 0.45644203 0.3844423
vn -0.9085302 -0.41781917 0.0
vt 0.49077082 0.4873684
vn -0.9126433 -0.40875676 0.0
vt 0.25856918 0.4873684
vn -0.9126433 -0.40875676 0.0
vt 0.31219572 0.3844423
vn -0.9085302 -0.41781917 0.0
f 14/9/9 9/10/10 10/11/11 13/12/12
vt 0.25891405 0.51053107
vn 0.9126433 -0.40875676 0.0
vt 0.25105804 0.62480396
vn 0.9976451 -0.068588026 0.0
vt 0.50245976 0.62480396
vn 0.9976451 -0.068588026 0.0
vt 0.49460357 0.51053107
vn 0.9126433 -0.40875676 0.0
f 11/13/13 7/14/14 8/15/15 12/16/16
vt 0.85288346 0.5079751
vn 0.9085302 -0.41781917 0.0
vt 0.79892063 0.1307379
vn 0.99608237 -0.08843061 0.0
vt 0.7165039 0.1307379
vn 0.99608237 -0.08843061 0.0
vt 0.6207604 0.5079751
vn 0.9085302 -0.41781917 0.0
f 15/17/17 6/18/18 5/19/19 16/20/20
vt 0.31219572 0.3844423
vn 0.9085302 -0.41781917 0.0
vt 0.25856918 0.4873684
vn 0.9126433 -0.40875676 0.0
vt 0.49077082 0.4873684
vn 0.9126433 -0.40875676 0.0
vt 0.45644203 0.3844423
vn 0.9085302 -0.41781917 0.0
f 16/21/21 11/22/22 12/23/23 15/24/24
vt 0.33365706 0.125
vn 0.0 -1.0 0.0
vt 0.375 0.125
vn 0.0 -1.0 0.0
vt 0.375 0.125
vn 0.0 -1.0 0.0
vt 0.33365706 0.125
vn 0.0 -1.0 0.0
f 1/25/25 5/26/26 6/27/27 2/28/28
vt 0.25282604 0.62646276
vn 0.0 1.0 0.0
vt 0.25282604 0.87535095
vn 0.0 1.0 0.0
vt 0.50171375 0.87535095
vn 0.0 1.0 0.0
vt 0.50171375 0.62646276
vn 0.0 1.0 0.0
f 3/29/29 4/30/30 8/31/31 7/32/32
vt 0.25891405 0.51053107
vn 0.0 -0.40875676 -0.9126433
vt 0.25105804 0.62480396
vn 0.0 -0.068588026 -0.9976451
vt 0.50245976 0.62480396
vn 0.0 -0.068588026 -0.9976451
vt 0.49460357 0.51053107
vn 0.0 -0.40875676 -0.9126433
f 10/33/33 3/34/34 7/35/35 11/36/36
vt 0.31219572 0.3844423
vn 0.0 -0.41781917 -0.9085302
vt 0.25856918 0.4873684
vn 0.0 -0.40875676 -0.9126433
vt 0.49077082 0.4873684
vn 0.0 -0.40875676 -0.9126433
vt 0.45644203 0.3844423
vn 0.0 -0.41781917 -0.9085302
f 13/37/37 10/38/38 11/39/39 16/40/40
vt 0.85288346 0.5079751
vn 0.0 -0.41781917 -0.9085302
vt 0.79892063 0.1307379
vn 0.0 -0.08843061 -0.99608237
vt 0.7165039 0.1307379
vn 0.0 -0.08843061 -0.99608237
vt 0.6207604 0.5079751
vn 0.0 -0.41781917 -0.9085302
f 16/41/41 5/42/42 1/43/43 13/44/44
vt 0.6207604 0.5079751
vn 0.0 -0.41781917 0.9085302
vt 0.7165039 0.1307379
vn 0.0 -0.08843061 0.99608237
vt 0.79892063 0.1307379
vn 0.0 -0.08843061 0.99608237
vt 0.85288346 0.5079751
vn 0.0 -0.41781917 0.9085302
f 14/45/45 2/46/46 6/47/47 15/48/48
vt 0.45644203 0.3844423
vn 0.0 -0.41781917 0.9085302
vt 0.49077082 0.4873684
vn 0.0 -0.40875676 0.9126433
vt 0.25856918 0.4873684
vn 0.0 -0.40875676 0.9126433
vt 0.31219572 0.3844423
vn 0.0 -0.41781917 0.9085302
f 15/49/49 12/50/50 9/51/51 14/52/52
vt 0.49460357 0.51053107
vn 0.0 -0.40875676 0.9126433
vt 0.50245976 0.62480396
vn 0.0 -0.068588026 0.9976451
vt 0.25105804 0.62480396
vn 0.0 -0.068588026 0.9976451
vt 0.25891405 0.51053107
vn 0.0 -0.40875676 0.9126433
f 12/53/53 8/54/54 4/55/55 9/56/56
